<svg width="32" height="32" viewBox="0 0 32 32" fill="none" xmlns="http://www.w3.org/2000/svg">
<path d="M17.3654 5.47975L18.581 4.26415C20.9682 1.87702 24.8544 1.81794 27.2553 4.19131C28.165 5.09262 28.7696 6.25627 28.9841 7.51879C29.1985 8.78133 29.0121 10.0793 28.4509 11.2304C28.1817 11.7803 28.0911 12.4005 28.1914 13.0045C28.2919 13.6084 28.5785 14.1659 29.0111 14.599C29.8067 13.8016 30.4373 12.8552 30.8669 11.814C31.2966 10.7728 31.517 9.65714 31.5155 8.53074C31.5137 7.40436 31.2904 6.28931 30.8577 5.24932C30.4251 4.20931 29.7917 3.26475 28.9939 2.46958C25.6368 -0.868666 20.1874 -0.802236 16.8396 2.54539L5.25288 14.1318L4.30035 13.1793C1.87274 10.7517 1.85726 6.78351 4.3277 4.39904C5.24214 3.51914 6.40717 2.94474 7.66197 2.75514C8.91677 2.56554 10.1995 2.77008 11.3331 3.34053C11.8505 3.60567 12.4385 3.70052 13.013 3.61153C13.5875 3.52255 14.1193 3.25428 14.5322 2.84503L14.5618 2.81565C14.571 2.80652 14.5782 2.79566 14.5832 2.78368C14.5882 2.77173 14.5908 2.75889 14.5908 2.74594C14.5908 2.73298 14.5882 2.72014 14.5832 2.70819C14.5782 2.69623 14.571 2.68537 14.5618 2.67622C12.967 1.12153 10.83 0.248268 8.60278 0.241207C6.37562 0.234148 4.23306 1.09385 2.62848 2.6384C-0.82794 5.97509 -0.815589 11.5237 2.58159 14.9209L14.1649 26.5042L12.9344 27.7346C10.5473 30.1217 6.6609 30.1808 4.26018 27.8075C3.35045 26.9062 2.7459 25.7425 2.53143 24.48C2.31698 23.2175 2.50336 21.9195 3.06443 20.7683C3.3336 20.2184 3.42432 19.5982 3.32393 18.9944C3.22351 18.3904 2.93699 17.8329 2.50438 17.3997C1.70882 18.1972 1.07818 19.1435 0.648469 20.1847C0.21876 21.226 -0.00158809 22.3415 8.61578e-06 23.4681C0.00160533 24.5944 0.225115 25.7095 0.657775 26.7494C1.09043 27.7895 1.72376 28.734 2.52157 29.5292C5.87858 32.8676 11.3281 32.8013 14.6759 29.4535L26.2776 17.8516L27.2337 18.8078C29.6209 21.1949 29.68 25.0811 27.3066 27.4819C26.4053 28.3917 25.2416 28.9962 23.9791 29.2108C22.7166 29.4252 21.4186 29.2388 20.2674 28.6776C19.7174 28.4083 19.0969 28.3175 18.4927 28.4181C17.8886 28.5187 17.3309 28.8055 16.8978 29.2384C17.6953 30.034 18.6415 30.6648 19.6827 31.0944C20.724 31.5241 21.8396 31.7445 22.9661 31.743C24.0924 31.7412 25.2075 31.5177 26.2474 31.0851C27.2875 30.6524 28.2321 30.019 29.0272 29.2213C32.3656 25.8642 32.2992 20.4147 28.9516 17.0671L17.3654 5.47975ZM15.8946 24.7737L6.98305 15.8621L15.6351 7.21023L24.5467 16.1218L15.8946 24.7737Z" fill="black"/>
</svg>
